# xmcd
#
# Track frame offsets:
#	150
#	15067
#	29017
#	41345
#	52862
#	68050
#	82847
#	96520
#	109650
#	123945
#
# Disc length: 1888 seconds
#
# Revision: 0
# Processed by: cddbd v1.4PL0 Copyright (c) Steve Scherf et al.
# Submitted via: EasyCDDAExtractor 4.6.0.1
#
DISCID=6d075e0a
DTITLE=Charlie Pride - Moody Woman
DYEAR=1900
DGENRE=country
TTITLE0=White Houses
TTITLE1=Can't Stop The Mississippi
TTITLE2=You Put It There
TTITLE3=Sail Away
TTITLE4=Moody Woman
TTITLE5=Heaven Help Us All
TTITLE6=Amy's Eyes
TTITLE7=After Me, After You
TTITLE8=I Made Love To You In My Mind
TTITLE9=The More I Do
EXTD=
EXTT0=
EXTT1=
EXTT2=
EXTT3=
EXTT4=
EXTT5=
EXTT6=
EXTT7=
EXTT8=
EXTT9=
PLAYORDER=
